<?xml version="1.0" encoding="UTF-8"?>
<svg xmlns="http://www.w3.org/2000/svg" xmlns:xlink="http://www.w3.org/1999/xlink" width="512pt" height="512pt" viewBox="0 0 512 512" version="1.1">
<g id="surface41">
<path style=" stroke:none;fill-rule:nonzero;fill:rgb(48.627451%,98.823529%,0%);fill-opacity:1;" d="M 505.121094 19.09375 C 503.929688 13.5625 498.460938 8.09375 492.914062 6.90625 C 460.714844 0 435.507812 0 410.40625 0 C 307.175781 0 245.269531 55.203125 199.050781 128 L 94.835938 128 C 78.488281 128.015625 59.28125 139.875 51.949219 154.484375 L 2.515625 253.296875 C 0.988281 256.667969 0.132812 260.300781 0 264 C 0.00390625 277.253906 10.75 288 24.003906 288 L 127.816406 288 L 105.339844 310.46875 C 93.976562 321.832031 92.34375 342.726562 105.339844 355.71875 L 156.246094 406.625 C 167.402344 417.8125 188.402344 419.78125 201.523438 406.625 L 223.996094 384.15625 L 223.996094 488 C 224.003906 501.253906 234.75 512 248.003906 512 C 251.703125 511.863281 255.339844 511.007812 258.710938 509.484375 L 357.4375 460.09375 C 372.066406 452.796875 383.945312 433.59375 383.945312 417.234375 L 383.945312 312.796875 C 456.542969 266.484375 511.980469 204.390625 511.980469 101.703125 C 512.074219 76.5 512.074219 51.296875 505.121094 19.09375 Z M 384.039062 168 C 361.949219 167.996094 344.046875 150.082031 344.050781 127.992188 C 344.054688 105.902344 361.964844 88 384.054688 88 C 406.144531 88 424.050781 105.910156 424.050781 128 C 424.039062 150.089844 406.128906 167.992188 384.039062 168 Z M 384.039062 168 "/>
</g>
</svg>
